# Blender v2.92.0 OBJ File: ''
# www.blender.org
mtllib ship2.mtl
o cube1
v -0.605856 -0.059928 0.079305
v -0.645622 -0.050346 -0.967384
v -0.370204 -0.121246 -0.535127
v -0.220496 -0.191680 -0.495554
v -0.220496 -0.191680 0.079305
v -0.118701 -0.130120 0.614148
v -0.237402 -0.090144 0.614148
v -0.237402 -0.002238 0.614148
v -0.605856 0.059321 0.079305
v -0.841839 0.092874 -0.309462
v -0.220496 0.213249 0.079305
v -0.370204 0.059322 -0.535127
v -0.220496 0.151498 -0.495554
v -0.069468 -0.063798 0.936583
v -0.069468 -0.132786 0.936583
v -0.053084 -0.063798 0.954933
v -0.053084 -0.132786 0.954933
v 0.000000 -0.063798 0.967384
v 0.000000 -0.154355 0.967384
v 0.053084 -0.063798 0.954933
v 0.000000 0.059512 0.614148
v 0.000000 -0.151689 0.614148
v 0.118701 -0.130120 0.614148
v 0.053084 -0.132786 0.954933
v 0.000000 0.151498 -0.455982
v 0.000000 0.213249 0.079305
v 0.220496 -0.191680 -0.495554
v 0.000000 -0.213249 -0.455982
v 0.220496 0.213249 0.079305
v 0.220496 0.151498 -0.495554
v 0.000000 -0.213249 0.079305
v 0.220496 -0.191680 0.079305
v -0.841839 -0.050346 -0.309462
v -0.645622 0.092874 -0.967384
v -0.118701 0.059512 0.614148
v 0.605856 -0.059928 0.079305
v 0.841839 0.092874 -0.309462
v 0.605856 0.059321 0.079305
v 0.645622 -0.050346 -0.967384
v 0.841839 -0.050346 -0.309462
v 0.370204 -0.121246 -0.535127
v 0.237402 -0.002238 0.614148
v 0.237402 -0.090144 0.614148
v 0.370204 0.059322 -0.535127
v 0.069468 -0.063798 0.936583
v 0.069468 -0.132786 0.936583
v 0.645622 0.092874 -0.967384
v 0.118701 0.059512 0.614148
vt 0.751626 0.296951
vt 0.778739 0.652091
vt 0.669914 0.504915
vt 0.602403 0.488930
vt 0.606140 0.295531
vt 0.584522 0.111953
vt 0.624732 0.111943
vt 0.163314 0.338079
vt 0.303063 0.163959
vt 0.230289 0.373100
vt 0.160760 0.512548
vt 0.367869 0.343157
vt 0.383048 0.665775
vt 0.187154 0.646178
vt 0.359661 0.565146
vt 1.000000 0.207288
vt 0.840250 0.131483
vt 0.920248 0.000000
vt 0.448977 0.700722
vt 0.409443 0.529814
vt 0.322562 0.058152
vt 0.279339 0.033288
vt 0.335031 0.051982
vt 0.583930 0.000631
vt 0.566158 0.000000
vt 0.215127 0.124209
vt 0.348668 0.043915
vt 0.297807 0.000000
vt 0.335031 0.051982
vt 0.383622 0.147086
vt 0.291116 0.018231
vt 0.546965 0.000895
vt 0.543590 0.110901
vt 0.584522 0.111953
vt 0.566158 0.000000
vt 0.481194 0.505860
vt 0.439129 0.324331
vt 0.448977 0.700722
vt 0.527716 0.688551
vt 0.367869 0.343157
vt 0.409443 0.529814
vt 0.527716 0.473881
vt 0.602403 0.488930
vt 0.531715 0.292713
vt 0.606140 0.295531
vt 0.118475 0.487834
vt 0.840250 0.428282
vt 0.906776 0.353443
vt 0.000000 0.690540
vt 0.175365 0.595452
vt 0.042286 0.715254
vt 0.346598 0.158554
vt 0.163314 0.338079
vt 0.160760 0.512548
vt 0.230289 0.373100
vt 0.751626 0.296951
vt 0.778739 0.652091
vt 0.840250 0.428282
vt 0.669914 0.504915
vt 0.303063 0.163959
vt 0.215127 0.124209
vt 0.359661 0.565146
vt 0.920248 0.000000
vt 0.840250 0.131483
vt 1.000000 0.207288
vt 0.383048 0.665775
vt 0.187154 0.646178
vt 0.322562 0.058152
vt 0.279339 0.033288
vt 0.291116 0.018231
vt 0.583930 0.000631
vt 0.624732 0.111943
vt 0.118475 0.487834
vt 0.000000 0.690540
vt 0.042286 0.715254
vt 0.906776 0.353443
vt 0.175365 0.595452
vt 0.346598 0.158554
vn -0.2502 -0.9682 0.0006
vn -0.3235 -0.9462 -0.0000
vn -0.3158 -0.9343 0.1651
vn -0.3186 -0.9329 0.1677
vn -0.3148 -0.9349 0.1641
vn -0.8235 -0.0000 0.5673
vn -0.8548 0.0000 0.5189
vn -0.3487 0.8731 0.3407
vn 0.8434 0.0000 -0.5374
vn -0.4103 -0.9095 -0.0666
vn 0.0862 0.9958 0.0321
vn 0.0832 0.9962 0.0257
vn 0.0868 0.9957 0.0333
vn 0.2556 0.0000 -0.9668
vn -0.5043 0.8586 -0.0922
vn -0.8869 0.0000 0.4619
vn -0.7459 0.0000 0.6660
vn 0.0112 -0.9999 -0.0100
vn -0.2284 0.0000 0.9736
vn 0.0771 0.9413 0.3286
vn -0.1788 -0.9839 -0.0074
vn 0.2284 0.0000 0.9736
vn 0.3892 -0.9187 0.0677
vn 0.1766 0.0000 -0.9843
vn 0.0000 0.9934 -0.1146
vn -0.1766 0.0000 -0.9843
vn -0.0192 0.9941 -0.1068
vn 0.0974 -0.9952 -0.0000
vn -0.0974 -0.9952 -0.0000
vn -0.0965 -0.9866 0.1319
vn 0.1776 -0.9776 0.1125
vn -0.0272 -0.9996 -0.0081
vn 0.0827 0.9963 0.0247
vn -0.9583 -0.0000 -0.2858
vn -0.3892 -0.9187 0.0677
vn 0.0000 0.9403 0.3403
vn -0.4230 0.8237 0.3776
vn -0.4240 0.8230 0.3780
vn -0.4228 0.8239 0.3775
vn 0.0192 0.9941 -0.1068
vn -0.3672 0.9194 -0.1408
vn 0.0000 0.9611 0.2763
vn -0.4366 0.8392 0.3243
vn -0.3189 -0.9328 0.1681
vn -0.4270 0.8209 0.3792
vn -0.0771 0.9413 0.3286
vn -0.1776 -0.9776 0.1125
vn 0.1788 -0.9839 -0.0074
vn -0.3189 -0.9469 0.0409
vn 0.8548 0.0000 0.5189
vn 0.0272 -0.9996 -0.0081
vn 0.4103 -0.9095 -0.0666
vn 0.3158 -0.9343 0.1651
vn 0.3186 -0.9329 0.1677
vn 0.3189 -0.9328 0.1681
vn 0.8235 -0.0000 0.5673
vn 0.3672 0.9194 -0.1408
vn -0.0868 0.9957 0.0333
vn -0.0832 0.9962 0.0257
vn -0.0862 0.9958 0.0321
vn 0.2502 -0.9682 0.0006
vn -0.2556 0.0000 -0.9668
vn -0.8434 0.0000 -0.5374
vn 0.7459 0.0000 0.6660
vn 0.4228 0.8239 0.3775
vn 0.4240 0.8230 0.3780
vn 0.4230 0.8237 0.3776
vn 0.3189 -0.9469 0.0409
vn 0.8869 0.0000 0.4619
vn 0.9583 -0.0000 -0.2858
vn -0.0827 0.9963 0.0247
vn -0.0112 -0.9999 -0.0100
vn 0.4270 0.8209 0.3792
vn 0.5043 0.8586 -0.0922
vn 0.3487 0.8731 0.3407
vn 0.3235 -0.9462 -0.0000
vn 0.0965 -0.9866 0.1319
vn 0.4366 0.8392 0.3243
vn 0.3148 -0.9349 0.1641
usemtl cube1_auv
s 1
f 1/1/1 2/2/1 3/3/1
f 1/1/2 4/4/2 5/5/2
f 1/1/3 6/6/4 7/7/5
f 1/8/6 8/9/6 9/10/6
f 9/10/7 10/11/7 1/8/7
f 9/10/8 8/9/8 11/12/8
f 3/13/9 2/14/9 12/15/9
f 3/3/10 4/4/10 1/1/10
f 12/16/11 10/17/12 9/18/13
f 12/15/14 4/19/14 3/13/14
f 12/15/15 11/12/15 13/20/15
f 14/21/16 8/9/16 15/22/16
f 15/22/17 16/23/17 14/21/17
f 15/24/18 6/6/18 17/25/18
f 15/22/16 8/9/16 7/26/16
f 18/27/19 16/23/19 19/28/19
f 18/27/20 20/29/20 21/30/20
f 19/28/19 16/23/19 17/31/19
f 19/32/21 6/6/21 22/33/21
f 19/28/22 20/29/22 18/27/22
f 19/32/23 23/34/23 24/35/23
f 25/36/24 4/19/24 13/20/24
f 25/36/25 11/12/25 26/37/25
f 25/36/26 27/38/26 28/39/26
f 25/36/27 29/40/27 30/41/27
f 28/39/24 4/19/24 25/36/24
f 28/42/28 27/43/28 31/44/28
f 26/37/25 29/40/25 25/36/25
f 31/44/29 4/4/29 28/42/29
f 31/44/30 6/6/30 5/5/30
f 31/44/28 27/43/28 32/45/28
f 31/44/31 23/34/31 22/33/31
f 33/46/7 1/8/7 10/11/7
f 33/47/32 2/2/32 1/1/32
f 10/17/12 12/16/11 34/48/33
f 10/11/34 2/49/34 33/46/34
f 34/50/9 12/15/9 2/14/9
f 34/51/34 2/49/34 10/11/34
f 17/31/17 16/23/17 15/22/17
f 17/25/35 6/6/35 19/32/35
f 16/23/36 21/30/36 35/52/36
f 16/23/37 8/9/38 14/21/39
f 13/20/14 4/19/14 12/15/14
f 13/20/40 11/12/40 25/36/40
f 11/12/41 12/15/41 9/10/41
f 11/12/42 21/30/42 26/37/42
f 11/12/43 8/9/43 35/52/43
f 5/5/29 4/4/29 31/44/29
f 5/5/44 6/6/4 1/1/3
f 35/52/42 21/30/42 11/12/42
f 35/52/45 8/9/38 16/23/37
f 21/30/46 16/23/46 18/27/46
f 21/30/42 29/40/42 26/37/42
f 22/33/47 6/6/47 31/44/47
f 22/33/48 23/34/48 19/32/48
f 7/7/49 6/6/49 15/24/49
f 7/26/6 8/9/6 1/8/6
f 36/53/50 37/54/50 38/55/50
f 36/56/51 39/57/51 40/58/51
f 36/56/52 27/43/52 41/59/52
f 36/56/53 23/34/54 32/45/55
f 36/53/56 42/60/56 43/61/56
f 38/55/57 44/62/57 29/40/57
f 38/63/58 37/64/59 44/65/60
f 38/55/56 42/60/56 36/53/56
f 41/59/61 39/57/61 36/56/61
f 41/66/62 27/38/62 44/62/62
f 44/62/63 39/67/63 41/66/63
f 44/62/62 27/38/62 30/41/62
f 45/68/64 20/29/64 46/69/64
f 45/68/65 42/60/66 20/29/67
f 46/69/64 20/29/64 24/70/64
f 46/71/68 23/34/68 43/72/68
f 46/69/69 42/60/69 45/68/69
f 40/73/70 39/74/70 37/54/70
f 37/54/50 36/53/50 40/73/50
f 37/54/70 39/74/70 47/75/70
f 47/76/71 44/65/60 37/64/59
f 39/67/63 44/62/63 47/77/63
f 24/70/22 20/29/22 19/28/22
f 24/35/72 23/34/72 46/71/72
f 20/29/67 42/60/66 48/78/73
f 30/41/26 27/38/26 25/36/26
f 30/41/74 29/40/74 44/62/74
f 29/40/42 21/30/42 48/78/42
f 29/40/75 42/60/75 38/55/75
f 32/45/76 27/43/76 36/56/76
f 32/45/77 23/34/77 31/44/77
f 48/78/36 21/30/36 20/29/36
f 48/78/78 42/60/78 29/40/78
f 43/72/79 23/34/54 36/56/53
f 43/61/69 42/60/69 46/69/69
